<?xml version="1.0" standalone="no"?>
<!DOCTYPE svg PUBLIC "-//W3C//DTD SVG 20010904//EN"
 "http://www.w3.org/TR/2001/REC-SVG-20010904/DTD/svg10.dtd">
<svg version="1.0" xmlns="http://www.w3.org/2000/svg"
 width="96.000000pt" height="96.000000pt" viewBox="0 0 96.000000 96.000000"
 preserveAspectRatio="xMidYMid meet">
<metadata>
Created by potrace 1.14, written by Peter Selinger 2001-2017
</metadata>
<g transform="translate(0.000000,96.000000) scale(0.100000,-0.100000)"
fill="#000000" stroke="none">
<path d="M369 905 c-79 -21 -141 -58 -199 -117 -109 -110 -150 -250 -119 -400
30 -140 135 -267 178 -214 14 16 5 42 -25 75 -35 37 -65 107 -77 177 -31 179
86 356 266 403 72 18 166 8 237 -26 139 -66 212 -186 206 -336 -4 -86 -25
-144 -78 -214 -33 -44 -38 -55 -28 -72 50 -94 190 131 190 304 0 199 -149 380
-350 425 -60 13 -145 11 -201 -5z"/>
<path d="M410 752 c-156 -48 -241 -201 -197 -353 18 -60 69 -129 96 -129 21 0
41 19 41 38 0 7 -14 33 -31 57 -52 72 -48 179 9 243 44 49 97 71 163 68 69 -3
115 -30 155 -88 25 -36 29 -51 29 -109 0 -60 -4 -72 -32 -113 -36 -50 -39 -66
-21 -84 30 -30 68 -2 109 77 94 182 -57 410 -263 400 -24 -1 -50 -5 -58 -7z"/>
<path d="M435 591 c-45 -20 -70 -60 -70 -113 0 -45 4 -53 38 -84 l37 -34 0
-120 0 -119 -31 -3 c-39 -4 -59 -30 -43 -56 9 -14 27 -17 114 -17 87 0 105 3
114 17 16 26 -4 52 -43 56 l-31 3 0 123 c0 120 1 123 25 136 26 14 55 65 55
98 0 34 -20 77 -46 96 -29 21 -90 30 -119 17z m75 -86 c15 -18 10 -45 -12 -59
-35 -22 -74 27 -48 59 16 19 44 19 60 0z"/>
</g>
</svg>
