<?xml version="1.0" standalone="no"?>
<!DOCTYPE svg PUBLIC "-//W3C//DTD SVG 20010904//EN"
 "http://www.w3.org/TR/2001/REC-SVG-20010904/DTD/svg10.dtd">
<svg version="1.0" xmlns="http://www.w3.org/2000/svg"
 width="96.000000pt" height="96.000000pt" viewBox="0 0 96.000000 96.000000"
 preserveAspectRatio="xMidYMid meet">
<metadata>
Created by potrace 1.14, written by Peter Selinger 2001-2017
</metadata>
<g transform="translate(0.000000,96.000000) scale(0.100000,-0.100000)"
fill="#000000" stroke="none">
<path d="M435 591 c-45 -20 -70 -60 -70 -113 0 -45 4 -53 38 -84 l37 -34 0
-120 0 -119 -31 -3 c-39 -4 -59 -30 -43 -56 9 -14 27 -17 114 -17 87 0 105 3
114 17 16 26 -4 52 -43 56 l-31 3 0 123 c0 120 1 123 25 136 26 14 55 65 55
98 0 34 -20 77 -46 96 -29 21 -90 30 -119 17z m75 -86 c15 -18 10 -45 -12 -59
-35 -22 -74 27 -48 59 16 19 44 19 60 0z"/>
</g>
</svg>
